<svg version="1.1" viewBox="0.000000 0.000000 96.000000 96.000000" xmlns="http://www.w3.org/2000/svg" xmlns:xlink="http://www.w3.org/1999/xlink" id="Icons_Lightbulb" overflow="hidden"><style>
.MsftOfcThm_Background1_Fill {
 fill:#FFFFFF; 
}
</style>
<path d=" M 38.000000 64.000000 L 58.000000 64.000000 C 59.700001 64.000000 61.000000 65.300003 61.000000 67.000000 C 61.000000 68.699997 59.700001 70.000000 58.000000 70.000000 L 38.000000 70.000000 C 36.299999 70.000000 35.000000 68.699997 35.000000 67.000000 C 35.000000 65.300003 36.299999 64.000000 38.000000 64.000000 Z" stroke="none" stroke-width="1.000000" stroke-dasharray="" stroke-dashoffset="1.000000" fill="#FFFFFF" fill-opacity="1.000000"/><path d=" M 38.000000 74.000000 L 58.000000 74.000000 C 59.700001 74.000000 61.000000 75.300003 61.000000 77.000000 C 61.000000 78.699997 59.700001 80.000000 58.000000 80.000000 L 38.000000 80.000000 C 36.299999 80.000000 35.000000 78.699997 35.000000 77.000000 C 35.000000 75.300003 36.299999 74.000000 38.000000 74.000000 Z" stroke="none" stroke-width="1.000000" stroke-dasharray="" stroke-dashoffset="1.000000" fill="#FFFFFF" fill-opacity="1.000000"/><path d=" M 41.500000 84.000000 C 41.799999 87.400002 44.599998 90.000000 48.000000 90.000000 C 51.400002 90.000000 54.200001 87.400002 54.500000 84.000000 L 41.500000 84.000000 Z" stroke="none" stroke-width="1.000000" stroke-dasharray="" stroke-dashoffset="1.000000" fill="#FFFFFF" fill-opacity="1.000000"/><path d=" M 48.000000 6.000000 C 48.000000 6.000000 48.000000 6.000000 48.000000 6.000000 C 48.000000 6.000000 48.000000 6.000000 48.000000 6.000000 C 33.799999 6.100000 22.299999 17.500000 22.000000 31.700001 L 22.000000 32.599998 C 22.100000 35.700001 22.700001 38.700001 23.799999 41.599998 C 24.900000 44.299999 26.400000 46.799999 28.299999 49.000000 C 30.700001 51.599998 33.299999 56.700001 34.400002 58.900002 C 34.700001 59.599998 35.400002 60.000000 36.200001 60.000000 L 59.799999 60.000000 C 60.599998 60.000000 61.299999 59.599998 61.599998 58.900002 C 62.700001 56.700001 65.300003 51.599998 67.699997 49.000000 C 69.599998 46.799999 71.199997 44.299999 72.199997 41.599998 C 73.300003 38.700001 73.900002 35.700001 74.000000 32.599998 L 74.000000 31.700001 C 73.699997 17.500000 62.200001 6.100000 48.000000 6.000000 Z M 68.000000 32.500000 C 67.900002 34.900002 67.400002 37.299999 66.599998 39.500000 C 65.800003 41.500000 64.699997 43.400002 63.200001 45.000000 C 60.900002 47.799999 58.900002 50.799999 57.400002 54.000000 L 48.000000 54.000000 L 38.700001 54.000000 C 37.099998 50.799999 35.099998 47.799999 32.900002 45.000000 C 31.500000 43.400002 30.299999 41.500000 29.500000 39.500000 C 28.600000 37.299999 28.200001 34.900002 28.100000 32.500000 L 28.100000 31.700001 C 28.299999 20.799999 37.200001 12.000000 48.099998 11.900000 L 48.099998 11.900000 L 48.099998 11.900000 C 48.099998 11.900000 48.099998 11.900000 48.099998 11.900000 C 48.099998 11.900000 48.099998 11.900000 48.099998 11.900000 L 48.099998 11.900000 L 48.099998 11.900000 C 59.000000 12.000000 67.900002 20.700001 68.099998 31.700001 L 68.099998 32.500000 Z" stroke="none" stroke-width="1.000000" stroke-dasharray="" stroke-dashoffset="1.000000" fill="#FFFFFF" fill-opacity="1.000000"/></svg>