<svg version="1.1" viewBox="0.000000 0.000000 96.000000 96.000000" xmlns="http://www.w3.org/2000/svg" xmlns:xlink="http://www.w3.org/1999/xlink" id="Icons_Car" overflow="hidden"><style>
.MsftOfcThm_Background1_Fill {
 fill:#FFFFFF; 
}
</style>
<circle cx="24.000000" cy="62.000000" r="8.000000" stroke="none" stroke-width="1.000000" stroke-dasharray="" stroke-dashoffset="1.000000" fill="#FFFFFF" fill-opacity="1.000000"/><circle cx="72.000000" cy="62.000000" r="8.000000" stroke="none" stroke-width="1.000000" stroke-dasharray="" stroke-dashoffset="1.000000" fill="#FFFFFF" fill-opacity="1.000000"/><path d=" M 39.000000 42.000000 L 39.000000 30.000000 L 52.700001 30.000000 C 53.799999 30.000000 54.799999 30.400000 55.500000 31.200001 L 66.300003 42.000000 L 39.000000 42.000000 Z M 35.000000 42.000000 L 9.700000 42.000000 L 20.500000 31.200001 C 21.299999 30.400000 22.299999 30.000000 23.299999 30.000000 L 35.000000 30.000000 L 35.000000 42.000000 Z M 82.000000 42.000000 L 73.699997 42.000000 C 72.599998 42.000000 71.599998 41.599998 70.900002 40.799999 L 58.299999 28.299999 C 56.799999 26.799999 54.799999 26.000000 52.599998 26.000000 L 23.299999 26.000000 C 21.200001 26.000000 19.100000 26.799999 17.600000 28.299999 L 5.200000 40.799999 C 4.400000 41.599998 4.000000 42.599998 4.000000 43.700001 L 4.000000 54.000000 C 4.000000 58.400002 7.600000 62.000000 12.000000 62.000000 L 13.000000 62.000000 C 13.000000 55.900002 17.900000 51.000000 24.000000 51.000000 C 30.100000 51.000000 35.000000 55.900002 35.000000 62.000000 L 61.000000 62.000000 C 61.000000 55.900002 65.900002 51.000000 72.000000 51.000000 C 78.099998 51.000000 83.000000 55.900002 83.000000 62.000000 L 88.000000 62.000000 C 90.199997 62.000000 92.000000 60.200001 92.000000 58.000000 L 92.000000 52.000000 C 92.000000 46.500000 87.500000 42.000000 82.000000 42.000000 Z" stroke="none" stroke-width="1.000000" stroke-dasharray="" stroke-dashoffset="1.000000" fill="#FFFFFF" fill-opacity="1.000000"/></svg>