<svg version="1.1" viewBox="0.000000 0.000000 96.000000 96.000000" xmlns="http://www.w3.org/2000/svg" xmlns:xlink="http://www.w3.org/1999/xlink" id="Icons_DeciduousTree" overflow="hidden"><style>
.MsftOfcThm_Background1_Fill {
 fill:#FFFFFF; 
}
</style>
<path d=" M 81.800003 32.799999 C 80.599998 28.799999 78.000000 25.400000 74.400002 23.299999 C 74.400002 23.000000 74.400002 22.700001 74.400002 22.400000 C 74.500000 15.600000 68.900002 10.000000 62.000000 10.000000 C 59.900002 10.000000 58.000000 10.500000 56.299999 11.400000 C 54.000000 8.100000 50.299999 6.000000 46.000000 6.000000 C 40.500000 6.000000 35.799999 9.600000 34.099998 14.600000 C 32.299999 13.600000 30.200001 13.000000 28.000000 13.000000 C 21.100000 13.000000 15.500000 18.600000 15.500000 25.500000 C 15.500000 28.100000 16.299999 30.500000 17.700001 32.500000 C 11.200000 34.200001 6.500000 40.000000 6.500000 47.000000 C 6.500000 55.299999 13.200000 62.000000 21.500000 62.000000 C 22.700001 62.000000 23.900000 61.799999 25.100000 61.599998 C 29.900000 63.799999 40.500000 70.199997 41.000000 77.500000 L 40.599998 87.000000 C 40.599998 87.500000 40.400002 88.000000 40.000000 88.400002 L 39.099998 89.300003 C 38.500000 90.000000 38.900002 91.000000 39.799999 91.000000 L 50.799999 91.000000 C 51.599998 91.000000 52.000000 90.199997 51.700001 89.500000 C 51.700001 89.500000 51.200001 88.500000 50.900002 88.199997 C 50.599998 87.800003 50.299999 87.400002 50.299999 86.800003 L 49.900002 74.699997 C 49.900002 74.599998 50.000000 74.500000 50.000000 74.500000 C 50.799999 70.900002 55.599998 68.500000 60.700001 66.000000 C 65.800003 63.500000 71.800003 60.500000 73.699997 55.299999 C 74.900002 55.700001 76.199997 56.000000 77.599998 56.000000 C 84.199997 56.000000 89.599998 50.599998 89.599998 44.000000 C 89.500000 38.900002 86.300003 34.500000 81.800003 32.799999 Z M 45.799999 63.299999 C 45.500000 60.799999 44.900002 57.799999 43.700001 54.900002 C 46.200001 54.599998 48.500000 53.799999 50.500000 52.599998 C 48.400002 56.200001 46.799999 60.099998 45.799999 63.299999 Z M 30.700001 58.799999 C 32.500000 57.400002 34.000000 55.500000 35.099998 53.400002 C 36.000000 53.799999 36.900002 54.200001 37.900002 54.400002 C 40.500000 58.700001 41.000000 63.599998 41.000000 66.699997 C 37.799999 63.299999 33.700001 60.599998 30.700001 58.799999 Z M 58.400002 61.500000 C 55.500000 62.900002 52.500000 64.400002 50.099998 66.199997 C 51.400002 62.099998 53.700001 55.900002 57.299999 51.400002 C 59.799999 53.000000 62.799999 53.900002 66.000000 53.900002 C 67.000000 53.900002 67.900002 53.799999 68.800003 53.599998 C 67.699997 56.700001 63.799999 58.799999 58.400002 61.500000 Z" stroke="none" stroke-width="1.000000" stroke-dasharray="" stroke-dashoffset="1.000000" fill="#FFFFFF" fill-opacity="1.000000"/></svg>